Talaash 2012 [Hindi Movie] TS 1CD SCAM Rip



TS (Telesync):

A telesync has the same specs as a CAM, except it uses an external audio source (most
likely an audio jack in the chair for hard of hearing people).Yes I have Used DIRECT
AUDIO AND USED VIDEO SOURCE OF UNTOUCHED CAM OF ICTV.
SYNCED PERFECTLY.CHECK SAMPLE
Rate your review on A/V AND ENJOY.
~ Team SIMHA
Video
ID                                       : 0
Format                                   : MPEG-4 Visual
Format profile                           : Advanced Simple@L5
Format settings, BVOP                    : 2
Format settings, QPel                    : Yes
Format settings, GMC                     : No warppoints
Format settings, Matrix                  : Default (H.263)
Codec ID                                 : XVID
Codec ID/Hint                            : XviD
Duration                                 : 2h 6mn
Bit rate                                 : 665 Kbps
Width                                    : 640 pixels
Height                                   : 256 pixels
Display aspect ratio                     : 2.500
Frame rate                               : 25.000 fps
Color space                              : YUV
Chroma subsampling                       : 4:2:0
Bit depth                                : 8 bits
Scan type                                : Progressive
Compression mode                         : Lossy
Bits/(Pixel*Frame)                       : 0.162
Stream size                              : 601 MiB (83%)
Writing library                          : XviD 1.2.1 (UTC 2008-12-04)

Audio
ID                                       : 1
Format                                   : MPEG Audio
Format version                           : Version 1
Format profile                           : Layer 3
Mode                                     : Joint stereo
Mode extension                           : MS Stereo
Codec ID                                 : 55
Codec ID/Hint                            : MP3
Duration                                 : 2h 6mn
Bit rate mode                            : Constant
Bit rate                                 : 128 Kbps
Channel(s)                               : 2 channels
Sampling rate                            : 48.0 KHz
Compression mode                         : Lossy
Stream size                              : 116 MiB (16%)
Alignment                                : Aligned on interleaves
Interleave, duration                     : 24 ms (0.60 video frame)
Interleave, preload duration             : 192 ms
Title                                    : TS AUDIO

Screenshots:

 
http://rapidimg.org/server/files/50ba25966dc9bd1K4yZ.png
 
http://rapidimg.org/server/files/50ba259545009LMO94b.png
 
http://rapidimg.org/server/files/50ba258d479caiOynKg.png
 
http://rapidimg.org/server/files/50ba2588943a5y5nSmR.png
 
http://rapidimg.org/server/files/50ba256e8f18bEcSFB1.png